<svg xmlns="http://www.w3.org/2000/svg" version="1.0" viewBox="784 336 509 360"><switch><g><path fill="black" d="m1086.045 347.482 4.569.69 5.891-1.37 2.819 3.33 4.13 2.74 3.511 1.03 3.43 3.34 5.63-1.63 2.37-2.39 3.87 1.02-1.41 3v2.74l4.58 2.74.26 4.36-5.54 9.16 3.17 12.5 9.4 5.14 6.95 2.99 6.24.35 3.779-1.63 2.11 5.05 5.63 2.06 3.63.57 3.25 1.94 7.25 7.55-.5 4.62 10.25 1.71.25 3.41 2.75 1.46v1.94l5-.24 2.25-1.95 7.5-1.46.5 2.19 7.25-3.16 3.5-4.87h3.5l7.25-.24.5-9.01-1.75-3.16 2.5-6.09 1.75-8.03 9.25 1.7 6 2.43 2.25-1.94 3.25.48-.25-3.65-1.5-2.19 1.25-4.38 3-1.46.5-3.41 1-1.7 1-3.17 4-6.81h6v-.01l3.25-3.65 3.25 1.95.5 1.95 6 5.11.5 3.65 3.25 2.44 6.5 1.21 6.75 4.87 2 3.17-1 7.06-2 3.41-2 5.59-1.5 5.6 2 5.36 1 5.36-1.75 1.46-2.75 3.4-2.25 6.33-1.5 7.79-2.5 3.9-3.75-.25-1 5.85 4.5 5.351.25 5.85s-3 3.16-5.5 4.38c-2.5 1.21-5.25 3.65-5.25 3.65v3.41s1.5 1.7 3 4.14c1.5 2.43 0 5.59 0 5.59l-2.25-.239-2 3.409-4.25 5.11s.75 2.19 2 4.38 1 8.04 1 8.04 1 2.19 1.5 3.89c.5 1.711 1.25 4.141 1.25 4.141l3.25 1.46 1.5-2.19 9.93-.609 5.07 4.51 3.75 6.08-.5 9.74-1 3.649-2.25 5.36.5 3.399-1.25 4.141-4.5 3.41-9.75-6.091-5.75 2.44-8-4.38h-4.25l-2.5 5.84-4.25-4.14-7.25.729-.75-4.87-1.75-2.68-7.25-3.65-3.75 3.171-2-6.82 4.75-8.76-4.75-5.601-.75-5.359-6.5 2.92-1.75 3.409-8.5-2.68-4.5 4.141-6.75 1.71-2.75 2.43-7.5-1.95-1.75 3.17.25 7.3-1.25 2.681-4.75.489-.5 3.16 2 2.19-2.75 1.71-2.75 5.11-4.75 2.43-.5 3.41 2 1.46.25 5.84-2.25 2.439v14.12l2.5 4.62-3 3.17-.5 4.87 4 1.7 3.25 5.36h2.75l1.5 1.939 7.5.25 1.25-1.71 4-1.21 3.5.24 1.5 2.92 1 3.65 3.25-.73s.5 4.38.5 6.09c0 1.7-.25 3.891-.25 3.891l-4.25-.971-5.75 3.891v7.06l-5.25 3.66-1 7.79 2.5 4.38 1.5 4.62 5.25 3.899 1.75 3.41 2.75.48-.25 3.649v.011l2.5.97.25 4.38 3.25 1.95.5 3.89-10 10.23-4.25 1.22s-1.75-.25-6.75-1.71-7.75 3.9-7.75 3.9l-4.5-3.66 2-3.16s.5-3.9.75-6.82-2.75-5.35-2.75-5.35l-8.75-5.12-7.25-2.43s.75-3.891 1.25-5.841c.5-1.949-2-6.09-2-6.09l-3.5-2.189 3.75-7.55-.25-5.351-2.75-.49-4.25-2.68-3-4.13-.5-2.92v-.01s-.32.04-.81.109c-.33.04-.74.101-1.181.17-1.27.181-2.83.44-3.76.7-1.75.49-2.75 3.16-2.75 3.16l-6-4.87-6.5 2.93-.5 2.67-3.75 1.461-6.5-.24-3.25 1.46-3 3.17-4.25 2.92-5 .97-4 2.92-4-1.46-1-2.43-3-2.19h-3l-3.25 3.891v2.68l-2 3.41v2.43l2.5 1.95-2.5 4.62-1 4.39-2.5.73-4.5-1.95-2.5-2.68-10 5.84h-6l-3-2.92-6.75-.24-4-1.95-3-1.95-3.25.73-6.25-6.811-2.5-5.359-3.25-10.46-2.5-2.44-8.5-3.89 2.25-3.9-2-10.22-2.25-2.92 1.75-15.58 1.25-2.68-1-7.311.75-5.84-.75-3.89-6.75 2.92-4 3.41-.25 6.319-3.5 3.66-5-2.68-1-3.17-4.5-4.38 1.25-1.7v-3.17l-3.5-1.7-2.25 1.22h-11l-9.75 4.13-1.5 3.66-1 11.44-2 2.68-4.75.73v7.06l3.5 4.62 5.25 4.63-.75 5.6 1.75 4.131-2 5.119 1 5.841 4.75 4.38-1.25 5.359-.25 6.08-2.5 2.681v5.359l-2.5 3.16-1 2.43-2.5 1.71v3.65l-2.75 1.71-1.5 12.9-3 .239-3 1.7-.5 3.41-1.5 1.95-4.25 2.92-3.25 12.66-1.25 1.95-6.75.479-4-.729-3-3.4-4.5-8.04-8.5-4.38-1.75-8.03-2-.49 1.5-10.22-4-5.12-2.75-5.35v-4.38l2.25-.73 1-2.93 2.25-2.19-.75-3.399-2-1.71 1.25-7.79 5.5-2.681.25-1.939 1.5-.98v-7.54l-2.25-5.85 2-3.16-1-3.649 4-2.19-4.25-8.52.25-5.601 1.25-4.63-3.5-7.54h-9.5l-.25-3.9-2.25-.97-.25-3.899-4.5-3.41.75-4.62-2-4.63 1.75-3.41-.75-4.13 2.5-8.04 2.25-1.95v-2.67h2.5v-3.17l-3.5-.97-.25-2.681-5-3.16-1.5-2.199-3.75-.24-5.75 3.41-1.75.239-1.25-2.68 2.25-3.16-3-5.109h-2.25v2.68s-1 1.46-2 2.19c-1 .729-5-1.711-5-1.711l-2.46.45-2.04 2.721-.25 4.869 2.5 2.19v2.92l-3 3.41s-1 .479-3.5.729c-2.5.24-3.75 3.16-3.75 3.16s-2.5.24-5.25.49c-2.75.24-3.5 3.89-3.5 3.89l-3.75-.239-1.5-3.9-7.75 4.14-13-6.33-2.5 1.461-4.25-1.7-3.5 1.95-5.25-2.44-3.76.15-1.24-8.671.25-7.06s-2 0-3-.729c-1-.73-2.25-2.431-2.25-2.431l-.25-2.189-2-1.221.25-2.43 2.5-.979s-1.25-1.94-.5-3.41c.75-1.46 2.25-1.94 2.25-1.94l2.75-3.41-.75-3.41.25-7.79h3l1.25-1.46.25-2.189 3.25-.73 1 1.95 2.25-.25.75-3.16h3l4.5-3.649 1.75-1.95s-2.75-3.41-1.25-5.36c1.5-1.939 4-3.399 4-3.399l1.75-.49 5 6.81 6.75-2.92.25-4.38 2-6.33 1.75-1.46h2.5l-2-9.01 2.25-2.67 4 .729-.5-2.92 2.5-.489s.5-1.71 2-1.71 3-2.19 3-2.19l.67-1.97.08.029 6.75.73 4 1.7.25 4.38 4.25.49 2.5-1.95 6.25-2.431 11.5-2.68 3-1.46 2.25-5.84 2.5-.49-.5-3.9 1.75-2.43 1.75-.73-.75-6.57 3.5-.73 1-2.68 4 .24 5.25 2.19 1.75 3.17 1 3.65 2.25.49 8.75-4.14s-1-2.19.5-2.92 2.75-1.22 2.75-1.22v-2.92l9 .73 4.5-2.68 3.75-4.38 2.25-4.63 3-.24 2.75-3.41 2.5 1.95.25 1.7 1.5 1.71 3.5-1.95 9.25.73 2 1.95 4.25-.49 4.25 1.22s6.75.49 9 .49 4.25 1.94 4.25 1.94 4.75.73 5.75 1.22 4 2.19 4 2.19l4 4.38 2-.97v-3.9l3.5.25s.75-.98.75-2.68v-3.65l1-2.19 3.5-1.71s-2.75-.97-2.25-3.41c.5-2.43 2-4.13 2-4.13l.25-3.17 2.5-1.46 1.75-4.38 3.5-1.22 2.5-6.82 4.75-2.43-3.25-5.36-3.25-3.4-2.5-5.36-.75-2.43-6.25-11.44 2.73-2.23 7.409-1.22 6.24-2.4 2.46 2.4 1.061 3 3.16.34 4.13-2.31 7.3-2.06 4.92 3.68h3.43l4.221-2.65 7.3-1.37 2.37 2.74 4.569.94 3.431 2.4 6.33.68 1.671 2.401zm15.199 229.58 2.12-4.25-1-.18-2.319 3.069-.49 3.311-2.16 1.6-3.21 3.9-.34 1.47.37.82 2.34-1.32 2.42-2.42 1.27-.11.7-1.29.299-4.6zm-14.65 15.74.34-1.94-.92-.63.61-1.29-1.271-.26-2.8 1.24-3.021 4.17-1.08.29-4.21 3.37.91.55 1.36-.11 4.79-1.28 2.85-3.34 2.442-.77z"/></g></switch></svg>