<svg xmlns="http://www.w3.org/2000/svg" xmlns:xlink="http://www.w3.org/1999/xlink" xmlns:inkscape="http://www.inkscape.org/namespaces/inkscape" version="1.1" width="6000" height="708.75" viewBox="0 0 6000 708.75">
<defs>
<clipPath id="clip_0">
<path transform="matrix(1,0,0,-1,0,708.75)" d="M0 0H6000V708.75H0Z"/>
</clipPath>
<clipPath id="clip_1">
<path transform="matrix(1,0,0,-1,0,708.75)" d="M0 0H6000V708.75H0Z"/>
</clipPath>
<path id="font_2_63" d="M.57099917 .38900758C.5843353 .38900758 .5938365 .38667298 .59950259 .38200379 .60516867 .3773346 .6080017 .3693339 .6080017 .3580017L.57699587 .070999149C.57366946 .041000368 .5463359 .020334879 .49499513 .009002686 .44366456-.0023295086 .39066569-.0079956059 .33599855-.0079956059 .23600261-.0079956059 .16183472 .015167236 .11349487 .06149292 .0651652 .10782877 .041000368 .17933147 .041000368 .27600099 .041000368 .41933189 .07299805 .52716067 .13699341 .5994873 .20099895 .67182418 .29400126 .70799258 .41600038 .70799258 .44533793 .70799258 .47600303 .7051595 .5079956 .6994934 .53999838 .69382736 .5664978 .68565878 .5874939 .6749878 .6085002 .66432699 .6190033 .6526642 .6190033 .6399994 .6190033 .6313324 .61450198 .6191661 .60549929 .60350039 .5964966 .58783468 .58599349 .57400009 .57398989 .56199648 .56199648 .55000308 .55200198 .54400637 .54400637 .54400637 .5420024 .54400637 .5343323 .54700216 .5209961 .5529938 .5076701 .55899557 .4910024 .56433108 .47099305 .56900027 .45099388 .57366946 .42699687 .576004 .39900209 .576004 .33433534 .576004 .28499858 .5526683 .25099183 .5059967 .21699524 .45933534 .19999695 .3900045 .19999695 .29800416 .19999695 .18133545 .25 .1230011 .3500061 .1230011 .3766683 .1230011 .40266419 .1253357 .42799378 .13000489L.44200135 .2579956H.35499574C.3456675 .2579956 .33899943 .26115928 .33499146 .26748658 .33099366 .27382408 .32899476 .28399659 .32899476 .29800416L.33000184 .32400514C.33066307 .3440043 .33416239 .35983787 .34049989 .37150575 .34683738 .3831736 .3556722 .38900758 .3670044 .38900758H.57099917Z"/>
<path id="font_2_343" d="M.32800294 .53100588C.35933433 .53100588 .375 .5156708 .375 .4850006 .375 .468338 .37016297 .44866944 .3604889 .42599488 .35082499 .40333048 .34233094 .3919983 .3350067 .3919983 .33233134 .3919983 .32732646 .39349876 .31999208 .39649964 .31266786 .39950053 .30400596 .40100099 .29400636 .40100099 .27866618 .40100099 .2633311 .39649964 .2480011 .38749696 .2326711 .37849427 .21900432 .3659973 .20700073 .3500061L.17500305 .02999878C.17299907 .008666992 .15199788-.0019989014 .11199951-.0019989014H.083999637C.065333049-.0019989014 .05116272 .0010019938 .041488649 .007003784 .03182475 .013005574 .026992798 .020339966 .026992798 .029006958L.06100464 .35699464C.06366984 .3829956 .06500244 .406662 .06500244 .42799378L.06399536 .46299745C.063334148 .46766664 .06300354 .4746653 .06300354 .48399354 .06300354 .49466453 .07400004 .5033315 .09599304 .5099945 .117996219 .51666769 .14566548 .5200043 .17900086 .5200043 .19832866 .5200043 .20933025 .49900309 .21200562 .45700074 .22733562 .4790039 .24416606 .49683634 .26249696 .51049807 .28082786 .5241699 .30266319 .53100588 .32800294 .53100588Z"/>
<path id="font_2_209" d="M.5240021 .11500549C.5273387 .11500549 .52950546 .11433411 .5305023 .11299133 .5314992 .11165873 .5319977 .108662929 .5319977 .104003909 .5319977 .09133911 .5296631 .07133993 .5249939 .044006349 .5223287 .027333579 .5119934 .01449585 .49398805 .005493164 .47599284-.0034993489 .45699565-.0079956059 .43699647-.0079956059 .37366233-.0079956059 .33533225 .017333985 .32200624 .067993167 .30733744 .045328779 .28799949 .026830038 .2639923 .012496948 .23999532-.001836141 .21399944-.009002686 .18600464-.009002686 .13666789-.009002686 .09733073 .009831746 .067993167 .04750061 .03866577 .08516947 .024002076 .1386668 .024002076 .20799256 .024002076 .2713267 .03333537 .32732646 .052001954 .37599183 .07066854 .42466737 .096832279 .46250407 .13049317 .48950196 .16416423 .5164998 .20266724 .5299988 .2460022 .5299988 .2713318 .5299988 .29416404 .52466329 .3144989 .5139923 .33483378 .5033315 .3523356 .4910024 .3670044 .477005 .3710022 .4910024 .3746643 .50083419 .37799073 .50650027 .3813273 .5121663 .3869934 .5164998 .394989 .51950076 .40299479 .52250167 .41533409 .5240021 .43200685 .5240021H.44400025C.48266603 .5240021 .5019989 .5156657 .5019989 .49899293L.49299623 .41099549C.47432963 .23766582 .46499635 .14766948 .46499635 .14100647 .46499635 .12966411 .46733094 .12149048 .47200013 .116485599 .4766693 .11149088 .48433433 .10899353 .49499513 .10899353 .5009969 .10899353 .5068309 .10999552 .51249697 .11199951 .518163 .1140035 .5219981 .11500549 .5240021 .11500549M.33299256 .30799867C.33566795 .33266703 .34000144 .358668 .34599305 .3860016 .32533265 .4039968 .30333457 .41299439 .27999879 .41299439 .2460022 .41299439 .21983338 .39615885 .20149231 .3624878 .18316143 .3288269 .17399597 .28032939 .17399597 .21699524 .17399597 .14699809 .19666545 .11199951 .2420044 .11199951 .26933799 .11199951 .29533897 .1313324 .32000733 .16999817L.33299256 .30799867Z"/>
<path id="font_2_363" d="M.522995 .11500549C.5263316 .11500549 .52849838 .11433411 .52949526 .11299133 .5305023 .11165873 .53100588 .108662929 .53100588 .104003909 .53100588 .09133911 .52867129 .07133993 .5240021 .044006349 .52133688 .027333579 .5110016 .01449585 .49299623 .005493164 .475001-.0034993489 .45600382-.0079956059 .43600465-.0079956059 .3713379-.0079956059 .33267213 .01867167 .32000733 .072006229 .30066935 .049331666 .27666728 .030329386 .2480011 .01499939 .21933492-.0003306071 .19000244-.0079956059 .16000366-.0079956059 .07267252-.0079956059 .029006958 .03433736 .029006958 .119003299 .029006958 .1309967 .029337565 .13999431 .02999878 .1459961L.06500244 .49299623C.066996257 .514328 .08799744 .5249939 .12800598 .5249939H.15600586C.17467244 .5249939 .18883769 .521993 .19850159 .5159912 .20816548 .5099996 .21299744 .5026703 .21299744 .4940033L.17900086 .16700745C.17766826 .15100606 .18166606 .13816834 .19099427 .12849427 .20033264 .11883036 .21433513 .11399841 .23300171 .11399841 .2503357 .11399841 .266332 .119166057 .2809906 .12950135 .2956594 .13983663 .30832926 .15266927 .31900025 .16799927L.35299684 .49299623C.35500083 .514328 .37600199 .5249939 .41600038 .5249939H.44400025C.46266685 .5249939 .47683207 .521993 .48649598 .5159912 .49617005 .5099996 .5010071 .5026703 .5010071 .4940033L.47999574 .29699708C.47866313 .28299967 .4771627 .26849876 .47549439 .25349427 .47383628 .23849996 .47233583 .22333272 .47099305 .20799256L.46400453 .14199829C.46400453 .13066609 .46633403 .12232971 .47099305 .116989139 .47566224 .11165873 .4833323 .10899353 .4940033 .10899353 .50000509 .10899353 .50583907 .10999552 .5115051 .11199951 .5171712 .1140035 .52100118 .11500549 .522995 .11500549Z"/>
<path id="font_2_234" d="M.34199525 .53100588C.39733378 .53100588 .4415029 .51217147 .47450257 .47450257 .50750228 .4368337 .5240021 .3833313 .5240021 .31399537 .5240021 .25066123 .51383468 .19466146 .49349977 .1459961 .4731649 .09733073 .44466148 .059499105 .4079895 .03250122 .37132774 .0055033366 .32933045-.0079956059 .28199769-.0079956059 .23733013-.0079956059 .19699605 .009338379 .16099549 .044006349 .15699768 .030670166 .15316265 .021169028 .14949036 .01550293 .14582825 .009836833 .14016216 .0055033366 .13249207 .0025024415 .12483215-.0004984538 .11266581-.0019989014 .09599304-.0019989014H.083999637C.045333864-.0019989014 .026000977 .0063323976 .026000977 .022994996L.1000061 .7220001C.101999919 .7433319 .12299601 .7539978 .16299439 .7539978H.19099427C.20966085 .7539978 .2238261 .7509969 .23348999 .7449951 .24316406 .73899337 .2480011 .731664 .2480011 .7230072L.22099304 .47399903C.2363332 .4920044 .2543335 .5060069 .2749939 .51600649 .29566447 .52600607 .31799827 .53100588 .34199525 .53100588M.2480011 .10899353C.28799949 .10899353 .31899516 .12582906 .34098817 .15950012 .36299134 .19317119 .37399293 .2416687 .37399293 .30499269 .37399293 .34099327 .36699424 .36749269 .35299684 .38449098 .33899943 .40149943 .31666566 .41000367 .28599549 .41000367 .25933329 .41000367 .23366802 .39133708 .20899964 .3540039L.19500733 .2230072 .18299866 .1349945C.20299785 .11766052 .22466533 .10899353 .2480011 .10899353Z"/>
<path id="font_2_367" d="M.522995 .11500549C.5263316 .11500549 .52849838 .11433411 .52949526 .11299133 .5305023 .11165873 .53100588 .108662929 .53100588 .104003909 .53100588 .09133911 .52867129 .07133993 .5240021 .044006349 .52133688 .027333579 .5110016 .01449585 .49299623 .005493164 .475001-.0034993489 .45600382-.0079956059 .43600465-.0079956059 .3713379-.0079956059 .33267213 .01867167 .32000733 .072006229 .30066935 .049331666 .27666728 .030329386 .2480011 .01499939 .21933492-.0003306071 .19000244-.0079956059 .16000366-.0079956059 .07267252-.0079956059 .029006958 .03433736 .029006958 .119003299 .029006958 .1309967 .029337565 .13999431 .02999878 .1459961L.06500244 .49299623C.066996257 .514328 .08799744 .5249939 .12800598 .5249939H.15600586C.17467244 .5249939 .18883769 .521993 .19850159 .5159912 .20816548 .5099996 .21299744 .5026703 .21299744 .4940033L.17900086 .16700745C.17766826 .15100606 .18166606 .13816834 .19099427 .12849427 .20033264 .11883036 .21433513 .11399841 .23300171 .11399841 .2503357 .11399841 .266332 .119166057 .2809906 .12950135 .2956594 .13983663 .30832926 .15266927 .31900025 .16799927L.35299684 .49299623C.35500083 .514328 .37600199 .5249939 .41600038 .5249939H.44400025C.46266685 .5249939 .47683207 .521993 .48649598 .5159912 .49617005 .5099996 .5010071 .5026703 .5010071 .4940033L.47999574 .29699708C.47866313 .28299967 .4771627 .26849876 .47549439 .25349427 .47383628 .23849996 .47233583 .22333272 .47099305 .20799256L.46400453 .14199829C.46400453 .13066609 .46633403 .12232971 .47099305 .116989139 .47566224 .11165873 .4833323 .10899353 .4940033 .10899353 .50000509 .10899353 .50583907 .10999552 .5115051 .11199951 .5171712 .1140035 .52100118 .11500549 .522995 .11500549M.21099854 .5780029C.19033814 .5780029 .17567444 .58066818 .16700745 .58599856 .15834046 .5913289 .15400696 .59932968 .15400696 .6100006L.16101074 .66999819C.16300456 .69132998 .18400066 .70199587 .22399903 .70199587 .2446696 .70199587 .25933839 .6993306 .26800538 .69400027 .27667237 .68866989 .28100587 .6806691 .28100587 .66999819L.27400209 .6100006C.2706655 .5886688 .2496643 .5780029 .21099854 .5780029M.39100648 .5780029C.3703359 .5780029 .3556671 .58066818 .34700013 .58599856 .33833314 .5913289 .33399964 .59932968 .33399964 .6100006L.34100343 .66999819C.34300743 .69132998 .36400859 .70199587 .40400697 .70199587 .42466737 .70199587 .43933106 .6993306 .44799806 .69400027 .45666505 .68866989 .46099855 .6806691 .46099855 .66999819L.45401 .6100006C.45067344 .5886688 .42967225 .5780029 .39100648 .5780029Z"/>
<path id="font_2_305" d="M.52900698 .11500549C.5323334 .11500549 .53449508 .11433411 .53549197 .11299133 .536499 .11165873 .53700259 .108662929 .53700259 .104003909 .53700259 .09133911 .53466799 .07133993 .5299988 .044006349 .52733358 .027333579 .5169983 .01449585 .49899293 .005493164 .4809977-.0034993489 .46200053-.0079956059 .44200135-.0079956059 .40200297-.0079956059 .37183634 .002166748 .35150147 .022491456 .3311666 .042826337 .32099916 .07499695 .32099916 .119003299L.32299806 .14500427C.32299806 .15033467 .32366435 .15966797 .32499696 .17300415L.33299256 .2460022C.33566795 .27067057 .33800254 .29333497 .33999635 .31399537 .34200035 .33466593 .34333293 .3496653 .34399415 .35899354 .34399415 .3756663 .33966065 .38816834 .33099366 .39649964 .32232667 .40483094 .30865989 .40899659 .2899933 .40899659 .27199809 .40899659 .25549827 .40299479 .24049378 .3909912 .22549947 .3789978 .21266683 .3646698 .20199585 .3480072L.16999817 .02999878C.16800435 .008666992 .14700318-.0019989014 .10699463-.0019989014H.07899475C.060328168-.0019989014 .046162923 .0010019938 .036499025 .007003784 .026835124 .013005574 .022003174 .020339966 .022003174 .029006958L.057006837 .3769989C.059000654 .39633689 .05999756 .41333518 .05999756 .42799378L.059005739 .46299745C.05833435 .46766664 .057998659 .4746653 .057998659 .48399354 .057998659 .49466453 .068995159 .5033315 .09098816 .5099945 .11299133 .51666769 .1406606 .5200043 .17399597 .5200043 .19466655 .5200043 .20566814 .4976705 .20700073 .45300294 .22433472 .47433473 .2473348 .49266563 .27600099 .5079956 .30466715 .52333578 .33366905 .53100588 .3630066 .53100588 .40766398 .53100588 .44082643 .5206706 .4624939 .5 .48416139 .47932945 .49499513 .44733177 .49499513 .40400697 .49499513 .39400736 .49033103 .3456726 .4810028 .2590027 .47366844 .19033814 .47000123 .15133667 .47000123 .14199829 .47000123 .13066609 .47233073 .12232971 .47698976 .116989139 .48165895 .11165873 .489329 .10899353 .5 .10899353 .5060018 .10899353 .51183578 .10999552 .51750186 .11199951 .5231679 .1140035 .527003 .11500549 .52900698 .11500549Z"/>
<path id="font_2_241" d="M.5359955 .11500549C.5393321 .11500549 .54149886 .11433411 .5424957 .11299133 .5435028 .11165873 .54400637 .108662929 .54400637 .104003909 .54400637 .09133911 .54167178 .07133993 .53700259 .044006349 .53433737 .027333579 .5240021 .01449585 .5059967 .005493164 .4880015-.0034993489 .4690043-.0079956059 .44900514-.0079956059 .41766358-.0079956059 .39232383-.0018310547 .37298585 .010498047 .35365806 .02283732 .34066264 .042338056 .33399964 .069000247 .31933085 .04566447 .30016075 .026997885 .27648927 .013000488 .25282798-.0009969076 .22666423-.0079956059 .19799805-.0079956059 .14533489-.0079956059 .103500369 .01083374 .07249451 .04849243 .04149882 .08616129 .026000977 .1396637 .026000977 .20899964 .026000977 .27233378 .03583272 .32833354 .055496217 .3769989 .07516988 .42566429 .102503459 .46349589 .13749695 .49049378 .17250061 .51750186 .21266683 .53100588 .2579956 .53100588 .29600016 .53100588 .33167015 .51733908 .3650055 .4900055L.3899994 .7220001C.3920034 .7433319 .41300456 .7539978 .45300294 .7539978H.4810028C.4996694 .7539978 .51383468 .7509969 .52349856 .7449951 .5331624 .73899337 .5379944 .731664 .5379944 .7230072 .53133139 .66367086 .5209961 .5678355 .5069885 .4355011 .49299113 .30316673 .4829966 .20533245 .477005 .14199829 .477005 .13066609 .4793345 .12232971 .48399354 .116989139 .48866273 .11165873 .4963328 .10899353 .5070038 .10899353 .51300558 .10899353 .51883956 .10999552 .5245056 .11199951 .5301717 .1140035 .53400167 .11500549 .5359955 .11500549M.35499574 .3899994C.33499656 .40600077 .31400047 .41400147 .29200746 .41400147 .25533549 .41400147 .22683208 .39716593 .20649719 .36349488 .18616231 .32983399 .17599488 .28133647 .17599488 .21800232 .17599488 .14800518 .20199585 .11300659 .2539978 .11300659 .28200279 .11300659 .30833436 .13267009 .33299256 .17199707L.35499574 .3899994Z"/>
<path id="font_2_248" d="M.5019989 .3860016C.5019989 .34399925 .49149577 .30933128 .4704895 .28199769 .4494934 .2546641 .42266337 .23466492 .3899994 .22200012 .35733543 .20933533 .32300315 .20300293 .28700257 .20300293 .2503306 .20300293 .21566265 .20533753 .18299866 .21000672 .18566387 .17133077 .19566345 .14482625 .21299744 .13049317 .23033142 .11616007 .2553304 .10899353 .28799439 .10899353 .32800294 .10899353 .3730062 .12099711 .42300416 .14500427 .43366496 .15033467 .44032798 .15299988 .44299317 .15299988 .44566856 .15299988 .44767253 .15216573 .44900514 .15049744 .45033775 .14882915 .45100404 .14499919 .45100404 .13900757 .45033265 .13567098 .44933067 .12383524 .44799806 .103500369 .44666545 .08316549 .44499717 .06933085 .44299317 .06199646 .43566896 .037328084 .41400657 .019495646 .37800599 .0084991459 .3420054-.0024973553 .30566917-.0079956059 .2689972-.0079956059 .18966167-.0079956059 .13049317 .01133728 .0914917 .05000305 .05250041 .08866882 .03300476 .14266968 .03300476 .21200562 .03300476 .32066856 .058670045 .40100099 .11000061 .45300294 .16133118 .5050049 .22733052 .53100588 .30799867 .53100588 .3579966 .53100588 .39749656 .5231679 .4264984 .50749209 .45550028 .4918264 .47533164 .47299195 .48599244 .45098878 .49666343 .42899577 .5019989 .40733338 .5019989 .3860016M.23800659 .30200196C.28067018 .30200196 .31133525 .3085022 .33000184 .3215027 .34866844 .33450318 .3580017 .3496704 .3580017 .3670044 .3580017 .38300578 .35266624 .39483644 .34199525 .40249635 .33133445 .4101664 .31667076 .41400147 .29800416 .41400147 .2686666 .41400147 .24516297 .40383403 .22749329 .38349916 .20983379 .36316429 .19733684 .33599855 .19000244 .30200196H.23800659Z"/>
<path id="font_2_28" d="M.07600403 0C.05000305 0 .03799947 .011998494 .039993287 .035995485L.10499573 .66000369C.10632833 .67400106 .11049398 .6841634 .117492679 .6904907 .12450155 .6968282 .13500469 .69999697 .14900208 .69999697H.34700013C.42233787 .69999697 .4776713 .68633016 .5130005 .6589966 .54832968 .631663 .56599429 .5939992 .56599429 .54600527 .56599429 .5073395 .55432638 .47217307 .5309906 .44050599 .507665 .4088389 .47766624 .385671 .44099427 .3710022V.3670044C.47699485 .35967 .50582888 .34216819 .52749636 .3144989 .5491638 .28682963 .55999758 .2553304 .55999758 .22000122 .55999758 .15000408 .5359955 .095835369 .48799134 .057495119 .43999736 .019165039 .3733317 0 .28799439 0H.07600403M.30299378 .42100526C.33433534 .42100526 .3590037 .4291687 .3769989 .4454956 .39500428 .46183268 .40400697 .48233543 .40400697 .5070038 .40400697 .54900619 .37633769 .5700073 .32099916 .5700073H.25L.23399353 .42100526H.30299378M.30099488 .1309967C.33166505 .1309967 .35616557 .13882955 .37449647 .15449524 .39282737 .17016094 .4019928 .19232686 .4019928 .22099304 .4019928 .2669932 .3686625 .2899933 .30200196 .2899933H.22000122L.20300293 .1309967H.30099488Z"/>
<path id="font_2_348" d="M.16600037-.0079956059C.13600159-.0079956059 .10450236-.0036621094 .071502689 .005004883 .03850301 .013671875 .022003174 .029668173 .022003174 .052993776 .022003174 .1130015 .029337565 .14300537 .044006349 .14300537 .046000165 .14300537 .05316162 .13983663 .06549072 .13349915 .077829997 .12716167 .09133402 .12149048 .10600281 .116485599 .12067159 .11149088 .13667298 .10899353 .15400696 .10899353 .17599996 .10899353 .1924947 .11299133 .20349121 .12098694 .21449788 .12899272 .22000122 .1406657 .22000122 .15600586 .22000122 .17000325 .21466573 .18066915 .20399475 .18800354 .19333394 .19533794 .18083699 .20167034 .1665039 .20700073 .15217082 .21233113 .14233399 .21599834 .13699341 .21800232 .107666019 .22999573 .084503177 .24532573 .06750488 .2639923 .05050659 .28266908 .042007448 .31100465 .042007448 .34899903 .042007448 .40700279 .060338338 .45183818 .09700012 .48350526 .13366191 .5151723 .18133037 .53100588 .2400055 .53100588 .27600608 .53100588 .30933634 .5261688 .33999635 .51649478 .3706665 .5068309 .3860016 .491333 .3860016 .47000123 .3860016 .46333824 .38283286 .4540049 .37649537 .44200135 .37016807 .42999778 .36283366 .41916404 .3544922 .40950013 .3461609 .3998362 .33899436 .39500428 .33299256 .39500428 .33032737 .39500428 .32166038 .39833579 .30699159 .40499879 .29233299 .41166178 .27367149 .4149933 .25100709 .4149933 .21300252 .4149933 .19400025 .40266419 .19400025 .37800599 .19400025 .3626658 .19916789 .35116069 .20950318 .3434906 .21983846 .3358307 .2320048 .3291677 .2460022 .3235016 .2599996 .31783549 .26999919 .31366984 .27600099 .31100465 .30533854 .29833985 .32866923 .2828369 .34599305 .26449586 .36332704 .24616497 .37199403 .21966553 .37199403 .18499756 .37199403 .125 .35299174 .07783508 .31498719 .043502809 .2769928 .009170532 .22733052-.0079956059 .16600037-.0079956059Z"/>
<path id="font_2_357" d="M.18600464-.0079956059C.1446635-.0079956059 .11266073 .0028381348 .08999634 .024505616 .06733195 .046173097 .055999757 .07967123 .055999757 .125 .055999757 .13433838 .05999756 .17667134 .067993167 .2519989 .07599894 .32733665 .08167013 .37867228 .085006717 .40600587H.06500244C.055664064 .40600587 .04899597 .4088389 .04499817 .414505 .041000368 .4201711 .039001466 .42933656 .039001466 .44200135 .039001466 .4959971 .05166626 .522995 .07699585 .522995H.09700012L.10699463 .6179962C.10899862 .639328 .1299998 .6499939 .16999817 .6499939H.19799805C.21666463 .6499939 .23082988 .646993 .24049378 .6409912 .25016786 .6349996 .25500489 .6276703 .25500489 .6190033L.24499512 .522995H.30400086C.31066386 .522995 .31499736 .52149459 .31700135 .51849368 .31900535 .5155029 .32000733 .5103404 .32000733 .503006 .32000733 .4810028 .3148397 .45933534 .3045044 .43800355 .2941691 .41667176 .27999879 .40600587 .2619934 .40600587H.23300171L.20500183 .14199829C.20500183 .13066609 .20733135 .12232971 .21199036 .116989139 .21665955 .11165873 .22432964 .10899353 .23500061 .10899353 .2436676 .10899353 .2516683 .10999552 .2590027 .11199951 .26633708 .1140035 .2710012 .11500549 .272995 .11500549 .27633158 .11500549 .27849833 .11433411 .27949525 .11299133 .28050233 .11165873 .28100587 .108662929 .28100587 .104003909 .28100587 .09133911 .27867127 .07133993 .27400209 .044006349 .27133689 .027333579 .2610016 .01449585 .24299622 .005493164 .22500102-.0034993489 .20600383-.0079956059 .18600464-.0079956059Z"/>
</defs>
<g>
<g clip-path="url(#clip_0)">
<g>
<g clip-path="url(#clip_1)">
<path transform="matrix(1,0,0,-1,0,708.75)" d="M0 0H6000V708.75H0Z" fill="#ffffff" fill-opacity="0"/>
</g>
</g>
<use data-text="G" xlink:href="#font_2_63" transform="matrix(857.1428,0,0,-857.1428,.0004,666.9463)"/>
<use data-text="r" xlink:href="#font_2_343" transform="matrix(857.1428,0,0,-857.1428,516.0004,666.9463)"/>
<use data-text="a" xlink:href="#font_2_209" transform="matrix(857.1428,0,0,-857.1428,804.00039,666.9463)"/>
<use data-text="u" xlink:href="#font_2_363" transform="matrix(857.1428,0,0,-857.1428,1248.8574,666.9463)"/>
<use data-text="b" xlink:href="#font_2_234" transform="matrix(857.1428,0,0,-857.1428,1704.0003,666.9463)"/>
<use data-text="&#x00fc;" xlink:href="#font_2_367" transform="matrix(857.1428,0,0,-857.1428,2154.0006,666.9463)"/>
<use data-text="n" xlink:href="#font_2_305" transform="matrix(857.1428,0,0,-857.1428,2609.1434,666.9463)"/>
<use data-text="d" xlink:href="#font_2_241" transform="matrix(857.1428,0,0,-857.1428,3064.2862,666.9463)"/>
<use data-text="e" xlink:href="#font_2_248" transform="matrix(857.1428,0,0,-857.1428,3524.5718,666.9463)"/>
<use data-text="n" xlink:href="#font_2_305" transform="matrix(857.1428,0,0,-857.1428,3962.5718,666.9463)"/>
<use data-text="B" xlink:href="#font_2_28" transform="matrix(857.1428,0,0,-857.1428,4461.4289,666.9463)" fill="#dea90b"/>
<use data-text="e" xlink:href="#font_2_248" transform="matrix(857.1428,0,0,-857.1428,4941.4289,666.9463)" fill="#dea90b"/>
<use data-text="s" xlink:href="#font_2_348" transform="matrix(857.1428,0,0,-857.1428,5375.143,666.9463)" fill="#dea90b"/>
<use data-text="t" xlink:href="#font_2_357" transform="matrix(857.1428,0,0,-857.1428,5700.8576,666.9463)" fill="#dea90b"/>
</g>
</g>
</svg>
